# xmcd CD database file
#
# Track frame offsets:
#	150
#	12792
#	25424
#	38383
#	52700
#	66212
#	81123
#	95639
#	110311
#	123679
#	135497
#	146108
#	157470
#	170548
#	182312
#	194347
#	205969
#	218174
#	232235
#	245580
#	259704
#	272624
#	284106
#	297020
#	309954
#	321785
#
# Disc length: 4465 seconds
#
# Revision: 0
# Processed by: cddbd v1.5.1PL0 Copyright (c) Steve Scherf et al.
# Submitted via: CDex 1.50beta9
#
DISCID=81116f1a
DTITLE=Earl Hines - Rythm Sundae - CD1
DYEAR=1900
DGENRE=Jazz
TTITLE0=Chicago High Life
TTITLE1=Stowaway
TTITLE2=Panther Rag
TTITLE3=Just Too Soon
TTITLE4=Caution Blues
TTITLE5=A Monday Date
TTITLE6=I Aint Got Nobody
TTITLE7=Fifty-Seven Varieties
TTITLE8=Glad Rag Doll
TTITLE9=Love Me Tonight
TTITLE10=Down Amon The Sheitering Palms
TTITLE11=Angry
TTITLE12=Rhythm Sundae
TTITLE13=Planology
TTITLE14=Grand Terrace Shuffle
TTITLE15=Piano Man
TTITLE16=G.T. Stomp
TTITLE17=Father Steps In
TTITLE18=Tanzalizing A Cuban
TTITLE19=Rosetta
TTITLE20=Boogie Woogie On St. Luis Blues
TTITLE21=Deep Forrest
TTITLE22=Number 19
TTITLE23=Body And Soul
TTITLE24=Child Of A Disordered Brain
TTITLE25=Blues in Third
EXTD=
EXTT0=
EXTT1=
EXTT2=
EXTT3=
EXTT4=
EXTT5=
EXTT6=
EXTT7=
EXTT8=
EXTT9=
EXTT10=
EXTT11=
EXTT12=
EXTT13=
EXTT14=
EXTT15=
EXTT16=
EXTT17=
EXTT18=
EXTT19=
EXTT20=
EXTT21=
EXTT22=
EXTT23=
EXTT24=
EXTT25=
PLAYORDER=
